<?xml version="1.0" encoding="utf-8"?>
<svg xmlns="http://www.w3.org/2000/svg" xmlns:xlink="http://www.w3.org/1999/xlink" style="margin: auto; background: none; display: block; shape-rendering: auto;" width="124px" height="124px" viewBox="0 0 100 100" preserveAspectRatio="xMidYMid">
<g transform="rotate(0 50 50)">
  <rect x="46" y="24" rx="4" ry="6" width="8" height="12" fill="#8efe71">
    <animate attributeName="opacity" values="1;0" keyTimes="0;1" dur="0.5076142131979695s" begin="-0.4653130287648054s" repeatCount="indefinite"></animate>
  </rect>
</g><g transform="rotate(30 50 50)">
  <rect x="46" y="24" rx="4" ry="6" width="8" height="12" fill="#8efe71">
    <animate attributeName="opacity" values="1;0" keyTimes="0;1" dur="0.5076142131979695s" begin="-0.4230118443316413s" repeatCount="indefinite"></animate>
  </rect>
</g><g transform="rotate(60 50 50)">
  <rect x="46" y="24" rx="4" ry="6" width="8" height="12" fill="#8efe71">
    <animate attributeName="opacity" values="1;0" keyTimes="0;1" dur="0.5076142131979695s" begin="-0.38071065989847713s" repeatCount="indefinite"></animate>
  </rect>
</g><g transform="rotate(90 50 50)">
  <rect x="46" y="24" rx="4" ry="6" width="8" height="12" fill="#8efe71">
    <animate attributeName="opacity" values="1;0" keyTimes="0;1" dur="0.5076142131979695s" begin="-0.338409475465313s" repeatCount="indefinite"></animate>
  </rect>
</g><g transform="rotate(120 50 50)">
  <rect x="46" y="24" rx="4" ry="6" width="8" height="12" fill="#8efe71">
    <animate attributeName="opacity" values="1;0" keyTimes="0;1" dur="0.5076142131979695s" begin="-0.2961082910321489s" repeatCount="indefinite"></animate>
  </rect>
</g><g transform="rotate(150 50 50)">
  <rect x="46" y="24" rx="4" ry="6" width="8" height="12" fill="#8efe71">
    <animate attributeName="opacity" values="1;0" keyTimes="0;1" dur="0.5076142131979695s" begin="-0.25380710659898476s" repeatCount="indefinite"></animate>
  </rect>
</g><g transform="rotate(180 50 50)">
  <rect x="46" y="24" rx="4" ry="6" width="8" height="12" fill="#8efe71">
    <animate attributeName="opacity" values="1;0" keyTimes="0;1" dur="0.5076142131979695s" begin="-0.21150592216582065s" repeatCount="indefinite"></animate>
  </rect>
</g><g transform="rotate(210 50 50)">
  <rect x="46" y="24" rx="4" ry="6" width="8" height="12" fill="#8efe71">
    <animate attributeName="opacity" values="1;0" keyTimes="0;1" dur="0.5076142131979695s" begin="-0.1692047377326565s" repeatCount="indefinite"></animate>
  </rect>
</g><g transform="rotate(240 50 50)">
  <rect x="46" y="24" rx="4" ry="6" width="8" height="12" fill="#8efe71">
    <animate attributeName="opacity" values="1;0" keyTimes="0;1" dur="0.5076142131979695s" begin="-0.12690355329949238s" repeatCount="indefinite"></animate>
  </rect>
</g><g transform="rotate(270 50 50)">
  <rect x="46" y="24" rx="4" ry="6" width="8" height="12" fill="#8efe71">
    <animate attributeName="opacity" values="1;0" keyTimes="0;1" dur="0.5076142131979695s" begin="-0.08460236886632826s" repeatCount="indefinite"></animate>
  </rect>
</g><g transform="rotate(300 50 50)">
  <rect x="46" y="24" rx="4" ry="6" width="8" height="12" fill="#8efe71">
    <animate attributeName="opacity" values="1;0" keyTimes="0;1" dur="0.5076142131979695s" begin="-0.04230118443316413s" repeatCount="indefinite"></animate>
  </rect>
</g><g transform="rotate(330 50 50)">
  <rect x="46" y="24" rx="4" ry="6" width="8" height="12" fill="#8efe71">
    <animate attributeName="opacity" values="1;0" keyTimes="0;1" dur="0.5076142131979695s" begin="0s" repeatCount="indefinite"></animate>
  </rect>
</g>
<!-- [ldio] generated by https://loading.io/ --></svg>